<?xml version="1.0" encoding="UTF-8" standalone="no"?>
<svg
   xmlns:svg="http://www.w3.org/2000/svg"
   xmlns="http://www.w3.org/2000/svg"
   version="1.1"
   width="60mm"
   height="70mm"
   id="cogneco-v4w-document">
  <path
     d="m 106.29688,35.437497 c -39.054351,0 -70.867188,31.812836 -70.867188,70.867183 0,39.05436 31.812837,70.86719 70.867188,70.86719 39.05435,0 70.86719,-31.81283 70.86719,-70.86719 0,-39.054347 -31.81284,-70.867183 -70.86719,-70.867183 z M 94.882817,50.749996 106,109.98437 l -8.601559,1.61719 5.148439,27.36719 -17.882811,3.35156 3.304688,17.61719 C 65.628277,152.33897 49.60938,131.27179 49.60938,106.30468 c 0,-27.483931 19.380929,-50.297596 45.273437,-55.554684 z m 32.476563,2.921876 c 20.90399,8.338084 35.63281,28.695301 35.63281,52.632808 0,26.60776 -18.1972,48.77697 -42.85156,54.93751 l -3.55469,-18.92188 17.88282,-3.375 -5.125,-27.34375 8.60156,-1.61719 -10.58594,-56.312498 z m -0.60156,33.226561 -0.34376,8.984376 -12.53126,-6.117188 12.875,-2.867188 z m -32.156251,0.578128 -10.296876,2.28906 10.031248,4.890624 0.26564,-7.179684 z m -0.1772,104.011979 0,29.108 5.488196,0 0,-16.1832 18.742755,18.08624 0,-29.344 -5.4882,0 0,16.42224 -18.742751,-18.08928 z m 77.010201,1.661 c -7.54584,0 -13.72049,6.17464 -13.72049,13.72048 0,2.01264 0.45002,3.92184 1.23741,5.64856 -1.49669,1.59 -3.61085,2.5898 -5.99042,2.5898 -4.57949,0 -8.23229,-3.6528 -8.23229,-8.23232 0,-4.57948 3.65279,-8.23528 8.23229,-8.23528 1.40005,0 2.71158,0.3448 3.8605,0.95 0.83013,-1.6516 1.92616,-3.14636 3.24028,-4.42324 -2.07676,-1.26812 -4.50298,-2.01496 -7.10078,-2.01496 -7.54584,0 -13.72049,6.17768 -13.72049,13.72348 0,2.1868 0.53199,4.25072 1.45223,6.09028 -1.45937,1.33176 -3.40498,2.14204 -5.55778,2.14204 -3.61368,0 -6.64323,-2.27864 -7.76335,-5.4882 l 9.48484,0 c -0.15308,-0.89424 -0.25112,-1.808 -0.25112,-2.74412 0,-0.93644 0.0979,-1.84944 0.25112,-2.74408 l -9.48484,0 c 1.12012,-3.21036 4.14967,-5.4912 7.76335,-5.4912 1.19146,0 2.3191,0.2492 3.33709,0.69584 0.86867,-1.65672 2.0182,-3.13988 3.37643,-4.40508 -1.98882,-1.12616 -4.27715,-1.77896 -6.71352,-1.77896 -7.54583,0 -13.72049,6.17768 -13.72049,13.72348 0,7.54584 6.17466,13.72048 13.72049,13.72048 3.39952,0 6.50625,-1.264 8.90395,-3.33404 2.40449,2.07032 5.51975,3.33404 8.92209,3.33404 3.55512,0 6.78375,-1.39212 9.22464,-3.63356 2.44513,2.24464 5.68919,3.63056 9.24886,3.63056 7.54583,0 13.72049,-6.17768 13.72049,-13.72352 0,-7.54584 -6.17466,-13.72048 -13.72049,-13.72048 z m -130.270494,0.003 c -7.545832,0 -13.720484,6.17772 -13.720484,13.72352 0,7.54584 6.174652,13.72048 13.720484,13.72048 3.528544,0 6.7378,-1.37044 9.173212,-3.58212 2.440048,2.2166 5.665224,3.58212 9.20044,3.58212 4.550152,0 8.591561,-2.25376 11.091357,-5.69088 2.5007,3.43684 6.541432,5.69088 11.091356,5.69088 3.772916,0 7.203672,-1.543 9.690564,-4.02988 l -0.0212,-0.02 0.0092,0 0,-8.8616 -5.488192,0 0,6.28692 c -1.225012,0.71992 -2.653344,1.13756 -4.190272,1.13756 -4.579508,0 -8.235316,-3.65276 -8.235316,-8.23228 0,-4.57952 3.655808,-8.23532 8.235316,-8.23532 2.289756,0 4.347464,0.9128 5.8331,2.3992 l 3.857468,-3.85444 c -2.48696,-2.48772 -5.917716,-4.03304 -9.690632,-4.03304 -4.550228,0 -8.590696,2.25584 -11.091356,5.69396 -2.499756,-3.43844 -6.540901,-5.69396 -11.091357,-5.69396 -7.545832,0 -13.723512,6.17772 -13.723512,13.72352 0,2.04128 0.46478,3.97568 1.273724,5.72116 -1.492648,1.5462 -3.581748,2.51112 -5.923864,2.51112 -4.579508,0 -8.232288,-3.65276 -8.232288,-8.23228 0,-4.57952 3.65278,-8.23532 8.232288,-8.23532 1.36852,0 2.651584,0.3308 3.781832,0.91068 0.835896,-1.65232 1.934732,-3.14816 3.2554,-4.42324 -2.0632,-1.24424 -4.466064,-1.97564 -7.037232,-1.97564 z m 130.270494,5.4852 c 4.5795,0 8.23229,3.65276 8.23229,8.23228 0,4.57952 -3.65279,8.23532 -8.23229,8.23532 -4.57951,0 -8.2323,-3.6558 -8.2323,-8.23532 0,-4.57952 3.65279,-8.23228 8.2323,-8.23228 z m -111.896842,0.003 c 4.579508,0 8.232293,3.6558 8.232293,8.23532 0,4.57952 -3.652785,8.23228 -8.232293,8.23228 -4.579508,0 -8.232292,-3.65276 -8.232292,-8.23228 0,-4.57952 3.652784,-8.23532 8.232292,-8.23532 z"
     style="fill:#ffffff;"
     id="cogneco-v4w" />
</svg>
