<?xml version="1.0" encoding="UTF-8" standalone="no"?>
<svg
   xmlns:svg="http://www.w3.org/2000/svg"
   xmlns="http://www.w3.org/2000/svg"
   version="1.1"
   width="144mm"
   height="45mm"
   id="cogneco-h3w-document">
  <path
     d="m 79.722659,26.578125 c -29.290765,0 -53.150396,23.859628 -53.150396,53.150393 0,29.290762 23.859631,53.150392 53.150396,53.150392 29.290761,0 53.150391,-23.85963 53.150391,-53.150392 0,-29.290765 -23.85963,-53.150393 -53.150391,-53.150393 z m -8.560548,11.484376 8.337891,44.425783 -6.451173,1.212891 3.86133,20.525395 -13.412109,2.51367 2.478516,13.21289 C 49.221205,114.25423 37.207033,98.453844 37.207033,79.728518 c 0,-20.612952 14.535696,-37.723201 33.955078,-41.666017 z m 24.357424,2.191407 c 15.677985,6.253563 26.724605,21.521476 26.724605,39.47461 0,19.955815 -13.6479,36.582732 -32.138669,41.203122 l -2.666017,-14.1914 13.412116,-2.53125 -3.843753,-20.507815 6.451173,-1.212891 -7.939455,-42.234376 z m -0.451173,24.919921 -0.25782,6.738282 -9.39844,-4.587891 9.656251,-2.150391 z m -24.117187,0.433596 -7.722657,1.716795 7.523436,3.667968 0.19923,-5.384763 z M 281.3672,49.933594 l 0,56.373046 10.62891,0 0,-31.341795 36.29879,35.027345 0,-56.830079 -10.62891,0 0,31.804689 -36.29879,-35.033206 z m 149.14451,3.216799 c -14.61393,0 -26.57229,11.95836 -26.57229,26.572266 0,3.897849 0.87156,7.595343 2.39649,10.939453 -2.89863,3.079356 -6.99309,5.015625 -11.60157,5.015625 -8.86902,0 -15.94335,-7.074291 -15.94335,-15.94336 0,-8.869068 7.0743,-15.949218 15.94335,-15.949218 2.71146,0 5.25147,0.667557 7.47657,1.839843 1.6077,-3.198594 3.73038,-6.093432 6.2754,-8.566407 -4.02201,-2.455899 -8.72085,-3.902343 -13.75197,-3.902343 -14.6139,0 -26.57226,11.964219 -26.57226,26.578125 0,4.235121 1.03029,8.23227 2.8125,11.794924 -2.82633,2.579202 -6.59436,4.148436 -10.76367,4.148436 -6.99855,0 -12.86583,-4.413003 -15.03516,-10.628908 l 18.36915,0 c -0.2964,-1.731855 -0.48633,-3.501513 -0.48633,-5.314452 0,-1.813602 0.1896,-3.581859 0.48633,-5.314452 l -18.36915,0 c 2.16933,-6.217443 8.03661,-10.634766 15.03516,-10.634766 2.30748,0 4.49136,0.482337 6.4629,1.347657 1.68234,-3.20853 3.90861,-6.080955 6.53907,-8.53125 -3.8517,-2.180994 -8.28348,-3.445314 -13.00197,-3.445314 -14.6139,0 -26.57226,11.964219 -26.57226,26.578125 0,14.613907 11.95836,26.572263 26.57226,26.572263 6.5838,0 12.60057,-2.44803 17.24415,-6.457028 4.65675,4.009568 10.69002,6.457028 17.27928,6.457028 6.88515,0 13.13799,-2.69614 17.86524,-7.037105 4.73544,4.347135 11.01816,7.031255 17.91213,7.031255 14.6139,0 26.57226,-11.964227 26.57226,-26.578131 0,-14.613906 -11.95836,-26.572266 -26.57226,-26.572266 z m -252.29295,0.006 c -14.61391,0 -26.57227,11.964219 -26.57227,26.578125 0,14.613907 11.95836,26.572272 26.57227,26.572272 6.83367,0 13.049,-2.65413 17.76562,-6.937505 4.72561,4.292885 10.97176,6.937505 17.81836,6.937505 8.81221,0 16.63915,-4.36482 21.48047,-11.021489 4.84308,6.656099 12.6687,11.021489 21.48048,11.021489 7.30695,0 13.95123,-2.98837 18.76755,-7.804694 l -0.0411,-0.04101 0.018,0 0,-17.16211 -10.62888,0 0,12.175783 c -2.37246,1.39425 -5.1387,2.203125 -8.11524,2.203125 -8.86908,0 -15.94923,-7.074291 -15.94923,-15.94336 0,-8.869068 7.08015,-15.949218 15.94923,-15.949218 4.43454,0 8.41965,1.767813 11.29686,4.646484 l 7.47072,-7.464843 c -4.81635,-4.817793 -11.46063,-7.810548 -18.76758,-7.810548 -8.81238,0 -16.63749,4.368792 -21.48048,11.027343 -4.84124,-6.659112 -12.66766,-11.027343 -21.48046,-11.027343 -14.61391,0 -26.57813,11.964219 -26.57813,26.578125 0,3.953292 0.90013,7.699605 2.4668,11.080078 -2.89079,2.994513 -6.93672,4.863282 -11.47266,4.863282 -8.86907,0 -15.94336,-7.074291 -15.94336,-15.94336 0,-8.869068 7.07429,-15.949218 15.94336,-15.949218 2.65039,0 5.13528,0.640329 7.32422,1.76367 1.61887,-3.200055 3.74696,-6.096972 6.30469,-8.566404 -3.9959,-2.409834 -8.64949,-3.82632 -13.62903,-3.82632 z m 252.29295,10.623048 c 8.86905,0 15.94335,7.074288 15.94335,15.943359 0,8.869069 -7.0743,15.949219 -15.94335,15.949219 -8.86908,0 -15.94338,-7.08015 -15.94338,-15.949219 0,-8.869071 7.0743,-15.943359 15.94338,-15.943359 z m -216.70897,0.006 c 8.86907,0 15.94336,7.08015 15.94336,15.949218 0,8.869069 -7.07429,15.94336 -15.94336,15.94336 -8.86907,0 -15.94336,-7.074291 -15.94336,-15.94336 0,-8.869068 7.07429,-15.949218 15.94336,-15.949218 z"
     style="fill:#ffffff;"
     id="cogneco-h3w" />
</svg>
