<?xml version="1.0" encoding="UTF-8" standalone="no"?>
<svg
   xmlns:svg="http://www.w3.org/2000/svg"
   xmlns="http://www.w3.org/2000/svg"
   id="cogneco-v6w-document"
   height="105mm"
   width="90mm"
   version="1.1">
  <path
     d="m 159.44532,53.156253 c -58.58153,0 -106.300784,47.719247 -106.300784,106.300777 0,58.58153 47.719254,106.30079 106.300784,106.30079 58.58153,0 106.30078,-47.71926 106.30078,-106.30079 0,-58.58153 -47.71925,-106.300777 -106.30078,-106.300777 z m -17.12109,22.968748 16.67578,88.851569 -12.90235,2.42578 7.72266,41.05078 -26.82422,5.02734 4.95704,26.42578 c -33.510725,-11.3978 -57.539069,-42.99857 -57.539069,-80.44922 0,-41.2259 29.071389,-75.446397 67.910159,-83.332029 z m 48.71484,4.382814 c 31.35598,12.507126 53.44922,43.042945 53.44922,78.949215 0,39.91163 -27.29581,73.16546 -64.27735,82.40625 l -5.33203,-28.38281 26.82423,-5.0625 -7.6875,-41.01562 12.90234,-2.42578 -15.87891,-84.468755 z m -0.90234,49.839845 -0.51564,13.47656 -18.79688,-9.17578 19.3125,-4.30078 z m -48.23438,0.86719 -15.44531,3.43359 15.04687,7.33593 0.39846,-10.76952 z m -0.2658,156.01796 0,43.662 8.2323,0 0,-24.2748 28.11413,27.12936 0,-44.016 -8.23229,0 0,24.63336 -28.11414,-27.13392 z m 115.51531,2.4915 c -11.31877,0 -20.58074,9.26196 -20.58074,20.58072 0,3.01896 0.67503,5.88276 1.85612,8.47284 -2.24504,2.385 -5.41628,3.8847 -8.98564,3.8847 -6.86923,0 -12.34843,-5.4792 -12.34843,-12.34848 0,-6.86922 5.47918,-12.35292 12.34843,-12.35292 2.10008,0 4.06737,0.5172 5.79075,1.425 1.2452,-2.4774 2.88925,-4.71954 4.86042,-6.63486 -3.11513,-1.90218 -6.75447,-3.02244 -10.65117,-3.02244 -11.31875,0 -20.58073,9.26652 -20.58073,20.58522 0,3.2802 0.79798,6.37608 2.17834,9.13542 -2.18905,1.99764 -5.10746,3.21306 -8.33667,3.21306 -5.42051,0 -9.96483,-3.41796 -11.64502,-8.2323 l 14.22726,0 c -0.22962,-1.34136 -0.37668,-2.712 -0.37668,-4.11618 0,-1.40466 0.14688,-2.77416 0.37668,-4.11612 l -14.22726,0 c 1.68019,-4.81554 6.22451,-8.2368 11.64502,-8.2368 1.78719,0 3.47865,0.3738 5.00564,1.04376 1.303,-2.48508 3.0273,-4.70982 5.06464,-6.60762 -2.98322,-1.68924 -6.41572,-2.66844 -10.07028,-2.66844 -11.31874,0 -20.58072,9.26652 -20.58072,20.58522 0,11.31876 9.26198,20.58072 20.58072,20.58072 5.09928,0 9.75938,-1.896 13.35593,-5.00106 3.60674,3.10548 8.27962,5.00106 13.38313,5.00106 5.33268,0 10.17563,-2.08818 13.83697,-5.45034 3.66769,3.36696 8.53378,5.44584 13.87329,5.44584 11.31874,0 20.58073,-9.26652 20.58073,-20.58528 0,-11.31876 -9.26199,-20.58072 -20.58073,-20.58072 z m -195.405746,0.005 c -11.31875,0 -20.580728,9.26658 -20.580728,20.58528 0,11.31876 9.261978,20.58072 20.580728,20.58072 5.292817,0 10.106701,-2.05566 13.759819,-5.37318 3.660072,3.3249 8.497836,5.37318 13.80066,5.37318 6.825228,0 12.887337,-3.38064 16.637037,-8.53632 3.75105,5.15526 9.81214,8.53632 16.63703,8.53632 5.65937,0 10.80551,-2.3145 14.53585,-6.04482 l -0.0318,-0.03 0.0138,0 0,-13.2924 -8.23229,0 0,9.43038 c -1.83752,1.07988 -3.98002,1.70634 -6.28541,1.70634 -6.86926,0 -12.35297,-5.47914 -12.35297,-12.34842 0,-6.86928 5.48371,-12.35298 12.35297,-12.35298 3.43463,0 6.5212,1.3692 8.74965,3.5988 l 5.7862,-5.78166 c -3.73044,-3.73158 -8.87657,-6.04956 -14.53595,-6.04956 -6.82534,0 -12.88604,3.38376 -16.63703,8.54094 -3.74963,-5.15766 -9.811349,-8.54094 -16.637033,-8.54094 -11.318748,0 -20.585268,9.26658 -20.585268,20.58528 0,3.06192 0.69717,5.96352 1.910586,8.58174 -2.238972,2.3193 -5.372622,3.76668 -8.885797,3.76668 -6.869264,0 -12.348434,-5.47914 -12.348434,-12.34842 0,-6.86928 5.47917,-12.35298 12.348434,-12.35298 2.05278,0 3.977377,0.4962 5.672749,1.36602 1.253844,-2.47848 2.902098,-4.72224 4.8831,-6.63486 -3.0948,-1.86636 -6.699096,-2.96346 -10.555849,-2.96346 z m 195.405746,8.2278 c 6.86925,0 12.34843,5.47914 12.34843,12.34842 0,6.86928 -5.47918,12.35298 -12.34843,12.35298 -6.86927,0 -12.34845,-5.4837 -12.34845,-12.35298 0,-6.86928 5.47918,-12.34842 12.34845,-12.34842 z m -167.845267,0.005 c 6.869262,0 12.348437,5.4837 12.348437,12.35298 0,6.86928 -5.479175,12.34842 -12.348437,12.34842 -6.869262,0 -12.348438,-5.47914 -12.348438,-12.34842 0,-6.86928 5.479176,-12.35298 12.348438,-12.35298 z"
     style="fill:#ffffff;"
     id="cogneco-v6w" />
</svg>
