<?xml version="1.0" encoding="UTF-8" standalone="no"?>
<svg
   xmlns:svg="http://www.w3.org/2000/svg"
   xmlns="http://www.w3.org/2000/svg"
   version="1.1"
   width="45mm"
   height="52.5mm"
   id="cogneco-v3w-document">
  <path
     d="m 79.722655,26.578125 c -29.290765,0 -53.150391,23.859627 -53.150391,53.150392 0,29.290763 23.859626,53.150383 53.150391,53.150383 29.290765,0 53.150395,-23.85962 53.150395,-53.150383 0,-29.290765 -23.85963,-53.150392 -53.150395,-53.150392 z m -8.560548,11.484375 8.337891,44.425783 -6.451173,1.212891 3.86133,20.525386 -13.41211,2.51367 2.478517,13.2129 C 49.221201,114.25424 37.207029,98.453842 37.207029,79.728517 c 0,-20.612953 14.535696,-37.723201 33.955078,-41.666017 z m 24.357423,2.191407 c 15.67799,6.253563 26.72461,21.521475 26.72461,39.47461 0,19.955814 -13.6479,36.582733 -32.138674,41.203123 l -2.666016,-14.19141 13.41211,-2.53125 -3.843748,-20.507806 6.451168,-1.212891 -7.93945,-42.234376 z m -0.451173,24.919921 -0.25782,6.738282 -9.398439,-4.587891 9.65625,-2.150391 z m -24.117186,0.433596 -7.722658,1.716795 7.523437,3.667968 0.19923,-5.384763 z m -0.1329,78.008986 0,21.831 4.116147,0 0,-12.1374 14.057067,13.56468 0,-22.008 -4.116147,0 0,12.31668 -14.057067,-13.56696 z m 57.757649,1.24575 c -5.65938,0 -10.29037,4.63098 -10.29037,10.29036 0,1.50948 0.33752,2.94138 0.92806,4.23642 -1.12252,1.1925 -2.70814,1.94235 -4.49282,1.94235 -3.43461,0 -6.17421,-2.7396 -6.17421,-6.17424 0,-3.43461 2.73959,-6.17646 6.17421,-6.17646 1.05004,0 2.03369,0.2586 2.89538,0.7125 0.6226,-1.2387 1.44462,-2.35977 2.43021,-3.31743 -1.55757,-0.95109 -3.37723,-1.51122 -5.32559,-1.51122 -5.65937,0 -10.29036,4.63326 -10.29036,10.29261 0,1.6401 0.39899,3.18804 1.08917,4.56771 -1.09453,0.99882 -2.55373,1.60653 -4.16833,1.60653 -2.710261,0 -4.982422,-1.70898 -5.822515,-4.11615 l 7.113625,0 c -0.11481,-0.67068 -0.18834,-1.356 -0.18834,-2.05809 0,-0.70233 0.0734,-1.38708 0.18834,-2.05806 l -7.113625,0 c 0.840093,-2.40777 3.112254,-4.1184 5.822515,-4.1184 0.89359,0 1.73932,0.1869 2.50281,0.52188 0.65151,-1.24254 1.51365,-2.35491 2.53232,-3.30381 -1.49161,-0.84462 -3.20786,-1.33422 -5.03513,-1.33422 -5.659378,0 -10.290367,4.63326 -10.290367,10.29261 0,5.65938 4.630989,10.29036 10.290367,10.29036 2.54963,0 4.87968,-0.948 6.67796,-2.50053 1.80337,1.55274 4.13981,2.50053 6.69156,2.50053 2.66635,0 5.08782,-1.04409 6.91849,-2.72517 1.83384,1.68348 4.26689,2.72292 6.93664,2.72292 5.65938,0 10.29037,-4.63326 10.29037,-10.29264 0,-5.65938 -4.63099,-10.29036 -10.29037,-10.29036 z m -97.702869,0.002 c -5.659374,0 -10.290363,4.63329 -10.290363,10.29264 0,5.65938 4.630989,10.29036 10.290363,10.29036 2.646408,0 5.05335,-1.02783 6.879909,-2.68659 1.830036,1.66245 4.248918,2.68659 6.90033,2.68659 3.412614,0 6.44367,-1.69032 8.318517,-4.26816 1.875525,2.57763 4.906074,4.26816 8.318517,4.26816 2.829687,0 5.402755,-1.15725 7.267924,-3.02241 l -0.0159,-0.015 0.0069,0 0,-6.6462 -4.116145,0 0,4.71519 c -0.918759,0.53994 -1.990008,0.85317 -3.142704,0.85317 -3.434631,0 -6.176487,-2.73957 -6.176487,-6.17421 0,-3.43464 2.741856,-6.17649 6.176487,-6.17649 1.717317,0 3.260599,0.6846 4.374826,1.7994 l 2.893101,-2.89083 c -1.86522,-1.86579 -4.438288,-3.02478 -7.267975,-3.02478 -3.412671,0 -6.443022,1.69188 -8.318517,4.27047 -1.874817,-2.57883 -4.905675,-4.27047 -8.318517,-4.27047 -5.659374,0 -10.292634,4.63329 -10.292634,10.29264 0,1.53096 0.348585,2.98176 0.955293,4.29087 -1.119486,1.15965 -2.686311,1.88334 -4.442898,1.88334 -3.43463,0 -6.174219,-2.73957 -6.174219,-6.17421 0,-3.43464 2.739589,-6.17649 6.174219,-6.17649 1.02639,0 1.988688,0.2481 2.836374,0.68301 0.626922,-1.23924 1.451049,-2.36112 2.44155,-3.31743 -1.5474,-0.93318 -3.349548,-1.48173 -5.277924,-1.48173 z m 97.702869,4.1139 c 3.43463,0 6.17422,2.73957 6.17422,6.17421 0,3.43464 -2.73959,6.17649 -6.17422,6.17649 -3.43463,0 -6.17422,-2.74185 -6.17422,-6.17649 0,-3.43464 2.73959,-6.17421 6.17422,-6.17421 z m -83.92263,0.002 c 3.434631,0 6.174219,2.74185 6.174219,6.17649 0,3.43464 -2.739588,6.17421 -6.174219,6.17421 -3.434631,0 -6.174219,-2.73957 -6.174219,-6.17421 0,-3.43464 2.739588,-6.17649 6.174219,-6.17649 z"
     style="fill:#ffffff;"
     id="cogneco-v3w" />
</svg>
