<?xml version="1.0" encoding="UTF-8" standalone="no"?>
<svg
   xmlns:svg="http://www.w3.org/2000/svg"
   xmlns="http://www.w3.org/2000/svg"
   version="1.1"
   width="240mm"
   height="75mm"
   id="cogneco-h5w-document">
  <path
     d="m 132.87107,44.296883 c -48.817903,0 -88.583956,39.766044 -88.583956,88.583977 0,48.81796 39.766053,88.58401 88.583956,88.58401 48.81795,0 88.584,-39.76605 88.584,-88.58401 0,-48.817933 -39.76605,-88.583977 -88.584,-88.583977 z m -14.26755,19.140624 13.8965,74.042953 -10.752,2.0215 6.43555,34.209 -22.3535,4.18946 4.13085,22.02145 c -27.925603,-9.49815 -47.949203,-35.83211 -47.949203,-67.04101 0,-34.354897 24.22615,-62.871993 56.591803,-69.443353 z m 40.5957,3.652345 c 26.13,10.422605 44.541,35.869108 44.541,65.791008 0,33.2597 -22.7465,60.97121 -53.56445,68.67191 l -4.44335,-23.65235 22.3535,-4.21876 -6.40625,-34.1797 10.75195,-2.0215 -13.2324,-70.390608 z m -0.75195,41.533208 -0.4295,11.23045 -15.66405,-7.6465 16.09375,-3.58395 z m -40.1953,0.72265 -12.8711,2.8613 12.53905,6.1133 0.332,-8.9746 z m 350.69336,-26.123048 0,93.955108 17.71485,0 0,-52.23636 60.49804,58.37891 0,-94.716807 -17.71486,0 0,53.007797 -60.49803,-58.388648 z m 248.57424,5.361351 c -24.35655,0 -44.28715,19.930597 -44.28715,44.287097 0,6.4964 1.4526,12.6589 3.99415,18.2324 -4.83105,5.13225 -11.65515,8.3594 -19.33595,8.3594 -14.7817,0 -26.57225,-11.7905 -26.57225,-26.5723 0,-14.78175 11.7905,-26.582 26.57225,-26.582 4.5191,0 8.75245,1.1126 12.46095,3.0664 2.6795,-5.331 6.2173,-10.155747 10.459,-14.277347 -6.70335,-4.09315 -14.53475,-6.5039 -22.91995,-6.5039 -24.3565,0 -44.2871,19.940347 -44.2871,44.296847 0,7.05855 1.71715,13.72045 4.6875,19.6582 -4.71055,4.2987 -10.9906,6.9141 -17.93945,6.9141 -11.66425,0 -21.44305,-7.355 -25.0586,-17.71485 l 30.61525,0 c -0.494,-2.88645 -0.81055,-5.83585 -0.81055,-8.85745 0,-3.02265 0.316,-5.96975 0.81055,-8.8574 l -30.61525,0 c 3.61555,-10.3624 13.39435,-17.7246 25.0586,-17.7246 3.8458,0 7.4856,0.8039 10.7715,2.2461 2.8039,-5.34755 6.51435,-10.134947 10.89845,-14.218747 -6.4195,-3.635 -13.8058,-5.7422 -21.66995,-5.7422 -24.3565,0 -44.2871,19.940347 -44.2871,44.296847 0,24.35655 19.9306,44.28716 44.2871,44.28716 10.973,0 21.00095,-4.08011 28.74025,-10.76176 7.76125,6.6826 17.8167,10.76176 28.7988,10.76176 11.47525,0 21.89665,-4.49361 29.7754,-11.72856 7.8924,7.24525 18.3636,11.71876 29.85355,11.71876 24.3565,0 44.2871,-19.94036 44.2871,-44.29686 0,-24.3565 -19.9306,-44.287097 -44.2871,-44.287097 z m -420.4883,0.01 c -24.35655,0 -44.28715,19.940347 -44.28715,44.296847 0,24.3565 19.9306,44.28711 44.28715,44.28711 11.38945,0 21.7483,-4.42356 29.60935,-11.56251 7.876,7.15485 18.28625,11.56251 29.69726,11.56251 14.68705,0 27.73195,-7.27471 35.8008,-18.36916 8.0718,11.09355 21.1145,18.36916 35.8008,18.36916 12.17825,0 23.25205,-4.98061 31.2793,-13.00781 l -0.0685,-0.0685 0.03,0 0,-28.6035 -17.71485,0 0,20.29295 c -3.9541,2.32375 -8.5645,3.6719 -13.5254,3.6719 -14.7818,0 -26.58205,-11.7905 -26.58205,-26.5723 0,-14.78175 11.80025,-26.582 26.58205,-26.582 7.3909,0 14.03275,2.94635 18.8281,7.7441 l 12.4512,-12.4414 c -8.02725,-8.029647 -19.10105,-13.017547 -31.2793,-13.017547 -14.6873,0 -27.72915,7.2813 -35.8008,18.378897 -8.06875,-11.098547 -21.11275,-18.378897 -35.80075,-18.378897 -24.35656,0 -44.29691,19.940347 -44.29691,44.296847 0,6.58885 1.5002,12.8327 4.11135,18.4668 -4.818,4.99085 -11.5612,8.1055 -19.1211,8.1055 -14.7818,0 -26.5723,-11.7905 -26.5723,-26.5723 0,-14.78175 11.7905,-26.582 26.5723,-26.582 4.4173,0 8.5588,1.0672 12.207,2.93945 2.69815,-5.33345 6.24495,-10.161647 10.50785,-14.277347 -6.65985,-4.0164 -14.41585,-6.3772 -22.71505,-6.3772 z m 420.4883,17.705047 c 14.78175,0 26.57225,11.7905 26.57225,26.57225 0,14.7818 -11.7905,26.58205 -26.57225,26.58205 -14.7818,0 -26.5723,-11.80025 -26.5723,-26.58205 0,-14.78175 11.7905,-26.57225 26.5723,-26.57225 z m -361.18169,0.01 c 14.7818,0 26.5723,11.80025 26.5723,26.58205 0,14.78175 -11.7905,26.57225 -26.5723,26.57225 -14.78176,0 -26.57226,-11.7905 -26.57226,-26.57225 0,-14.7818 11.7905,-26.58205 26.57226,-26.58205 z"
     style="fill:#ffffff;"
     id="cogneco-h5w" />
</svg>
