<?xml version="1.0" encoding="UTF-8" standalone="no"?>
<svg
   xmlns:svg="http://www.w3.org/2000/svg"
   xmlns="http://www.w3.org/2000/svg"
   version="1.1"
   width="15mm"
   height="17.5mm"
   id="cogneco-v1w-document">
  <path
     d="m 26.574219,8.8593744 c -9.763588,0 -17.7167977,7.9532096 -17.7167977,17.7167976 0,9.763588 7.9532097,17.716797 17.7167977,17.716797 9.763588,0 17.716797,-7.953209 17.716797,-17.716797 0,-9.763588 -7.953209,-17.7167976 -17.716797,-17.7167976 z M 23.720703,12.6875 26.5,27.496094 l -2.150391,0.404297 1.28711,6.841797 -4.470703,0.83789 0.826172,4.404297 c -5.58512,-1.899633 -9.589844,-7.166428 -9.589844,-13.408203 0,-6.870984 4.845232,-12.5744 11.318359,-13.888672 z m 8.119141,0.730469 c 5.225996,2.084521 8.908203,7.173825 8.908203,13.158203 0,6.651938 -4.549301,12.194242 -10.712891,13.734375 l -0.888672,-4.730469 4.470704,-0.84375 -1.28125,-6.835937 2.15039,-0.404297 -2.646484,-14.078125 z m -0.150391,8.30664 -0.08594,2.246094 -3.132813,-1.529297 3.21875,-0.716797 z m -8.039062,0.144532 -2.574219,0.572265 2.507812,1.222656 0.06641,-1.794921 z m -0.0443,26.002994 0,7.277 1.372049,0 0,-4.0458 4.685689,4.52156 0,-7.336 -1.372049,0 0,4.10556 -4.685689,-4.52232 z m 19.252551,0.41525 c -1.886461,0 -3.430124,1.54366 -3.430124,3.43012 0,0.50316 0.112506,0.98046 0.309354,1.41214 -0.374174,0.3975 -0.902714,0.64745 -1.497607,0.64745 -1.144871,0 -2.058072,-0.9132 -2.058072,-2.05808 0,-1.14487 0.913197,-2.05882 2.058072,-2.05882 0.350014,0 0.677895,0.0862 0.965125,0.2375 0.207533,-0.4129 0.481542,-0.78659 0.81007,-1.10581 -0.519188,-0.31703 -1.125744,-0.50374 -1.775195,-0.50374 -1.886458,0 -3.430121,1.54442 -3.430121,3.43087 0,0.5467 0.132997,1.06268 0.363056,1.52257 -0.364841,0.33294 -0.851243,0.53551 -1.389444,0.53551 -0.903419,0 -1.660806,-0.56966 -1.940837,-1.37205 l 2.37121,0 c -0.03827,-0.22356 -0.06278,-0.452 -0.06278,-0.68603 0,-0.23411 0.02448,-0.46236 0.06278,-0.68602 l -2.37121,0 c 0.280031,-0.80259 1.037418,-1.3728 1.940837,-1.3728 0.297864,0 0.579774,0.0623 0.834273,0.17396 0.217167,-0.41418 0.504549,-0.78497 0.844106,-1.10127 -0.497203,-0.28154 -1.069286,-0.44474 -1.678379,-0.44474 -1.886458,0 -3.430121,1.54442 -3.430121,3.43087 0,1.88646 1.543663,3.43012 3.430121,3.43012 0.849879,0 1.626563,-0.316 2.225987,-0.83351 0.601124,0.51758 1.379937,0.83351 2.230522,0.83351 0.888781,0 1.695938,-0.34803 2.306162,-0.90839 0.611282,0.56116 1.422296,0.90764 2.312215,0.90764 1.886457,0 3.430121,-1.54442 3.430121,-3.43088 0,-1.88646 -1.543664,-3.43012 -3.430121,-3.43012 z m -32.567624,7.7e-4 c -1.8864587,0 -3.4301217,1.54443 -3.4301217,3.43088 0,1.88646 1.543663,3.43012 3.4301217,3.43012 0.882136,0 1.68445,-0.34261 2.293303,-0.89553 0.610012,0.55415 1.416306,0.89553 2.30011,0.89553 1.137538,0 2.14789,-0.56344 2.772839,-1.42272 0.625175,0.85921 1.635358,1.42272 2.772839,1.42272 0.943229,0 1.800918,-0.38575 2.422641,-1.00747 l -0.0053,-0.005 0.0023,0 0,-2.2154 -1.372048,0 0,1.57173 c -0.306253,0.17998 -0.663336,0.28439 -1.047568,0.28439 -1.144877,0 -2.058829,-0.91319 -2.058829,-2.05807 0,-1.14488 0.913952,-2.05883 2.058829,-2.05883 0.572439,0 1.086866,0.2282 1.458275,0.5998 l 0.964367,-0.96361 c -0.62174,-0.62193 -1.479429,-1.00826 -2.422658,-1.00826 -1.137557,0 -2.147674,0.56396 -2.772839,1.42349 -0.624939,-0.85961 -1.635225,-1.42349 -2.772839,-1.42349 -1.886458,0 -3.430878,1.54443 -3.430878,3.43088 0,0.51032 0.116195,0.99392 0.318431,1.43029 -0.373162,0.38655 -0.895437,0.62778 -1.480966,0.62778 -1.1448767,0 -2.0580727,-0.91319 -2.0580727,-2.05807 0,-1.14488 0.913196,-2.05883 2.0580727,-2.05883 0.34213,0 0.662896,0.0827 0.945458,0.22767 0.208974,-0.41308 0.483683,-0.78704 0.81385,-1.10581 -0.5158,-0.31106 -1.116516,-0.49391 -1.759308,-0.49391 z m 32.567624,1.3713 c 1.144875,0 2.058072,0.91319 2.058072,2.05807 0,1.14488 -0.913197,2.05883 -2.058072,2.05883 -1.144879,0 -2.058075,-0.91395 -2.058075,-2.05883 0,-1.14488 0.913196,-2.05807 2.058075,-2.05807 z m -27.974211,7.7e-4 c 1.144877,0 2.058073,0.91395 2.058073,2.05883 0,1.14488 -0.913196,2.05807 -2.058073,2.05807 -1.144877,0 -2.058073,-0.91319 -2.058073,-2.05807 0,-1.14488 0.913196,-2.05883 2.058073,-2.05883 z"
     style="fill:#ffffff;"
     id="cogneco-v1w" />
</svg>
