<?xml version="1.0" encoding="UTF-8" standalone="no"?>
<svg
   xmlns:svg="http://www.w3.org/2000/svg"
   xmlns="http://www.w3.org/2000/svg"
   id="cogneco-h4w-document"
   height="60mm"
   width="192mm"
   version="1.1">
  <path
     d="m 106.29689,35.437515 c -39.054363,0 -70.867201,31.812835 -70.867201,70.867195 0,39.05432 31.812838,70.86715 70.867201,70.86715 39.05436,0 70.86719,-31.81283 70.86719,-70.86715 0,-39.05436 -31.81283,-70.867195 -70.86719,-70.867195 z M 94.882807,50.75 l 11.117203,59.23439 -8.601564,1.6172 5.148444,27.36715 -17.882802,3.35157 3.304678,17.61721 c -22.340478,-7.59854 -38.359359,-28.66573 -38.359359,-53.63281 0,-27.48396 19.38092,-50.29759 45.2734,-55.55471 z m 32.476603,2.92188 c 20.90396,8.33807 35.63279,28.69531 35.63279,52.63283 0,26.60772 -18.19719,48.77696 -42.85155,54.93748 l -3.55468,-18.92188 17.8828,-3.37501 -5.125,-27.34371 8.60156,-1.6172 -10.58592,-56.31251 z m -0.6016,33.22655 -0.3436,8.9844 -12.53124,-6.1172 12.875,-2.8672 z m -32.156243,0.57816 -10.29688,2.28904 10.031281,4.89064 0.265599,-7.17968 z m 280.554683,-20.89843 0,75.16403 14.17186,0 0,-41.78904 48.39845,46.70312 0,-75.77344 -14.17189,0 0,42.40625 -48.39842,-46.71092 z m 198.85938,4.28903 c -19.48522,0 -35.42972,15.94448 -35.42972,35.42968 0,5.19716 1.16209,10.12712 3.19532,14.58597 -3.86484,4.10579 -9.32411,6.68747 -15.46875,6.68747 -11.82535,0 -21.2578,-9.43236 -21.2578,-21.2578 0,-11.82544 9.4324,-21.26564 21.2578,-21.26564 3.61527,0 7.00195,0.89008 9.96876,2.45312 2.14359,-4.26476 4.97383,-8.12456 8.36719,-11.42184 -5.36268,-3.27456 -11.62778,-5.20316 -18.33595,-5.20316 -19.4852,0 -35.42969,15.95232 -35.42969,35.43752 0,5.64683 1.37372,10.97636 3.75002,15.72656 -3.76845,3.43893 -8.7925,5.53124 -14.35156,5.53124 -9.33141,0 -17.15445,-5.884 -20.04688,-14.17187 l 24.4922,0 c -0.39521,-2.30913 -0.64846,-4.66869 -0.64846,-7.08593 0,-2.41812 0.25281,-4.7758 0.64846,-7.08592 l -24.4922,0 c 2.89243,-8.28996 10.71547,-14.17972 20.04688,-14.17972 3.07663,0 5.98846,0.64312 8.61719,1.79688 2.24311,-4.27804 5.21147,-8.10792 8.71876,-11.375 -5.13559,-2.908 -11.04464,-4.59376 -17.33595,-4.59376 -19.48522,0 -35.42969,15.95232 -35.42969,35.43752 0,19.48519 15.94447,35.42968 35.42969,35.42968 8.77839,0 16.80074,-3.26404 22.99219,-8.60935 6.209,5.34607 14.25337,8.60935 23.03904,8.60935 9.18019,0 17.51732,-3.59484 23.82031,-9.38281 6.31393,5.79618 14.69088,9.375 23.88284,9.375 19.48521,0 35.42968,-15.9523 35.42968,-35.43751 0,-19.4852 -15.94447,-35.42968 -35.42968,-35.42968 z m -336.39062,0.008 c -19.48521,0 -35.42968,15.95228 -35.42968,35.43752 0,19.48519 15.94447,35.42968 35.42968,35.42968 9.11155,0 17.39866,-3.53884 23.68752,-9.24999 6.30078,5.72383 14.629,9.24999 23.75779,9.24999 11.74961,0 22.18553,-5.81977 28.64063,-14.69534 6.45741,8.87481 16.89162,14.69534 28.64062,14.69534 9.74258,0 18.60167,-3.98448 25.02344,-10.40625 l -0.0549,-0.0547 0.0239,0 0,-22.88283 -14.17187,0 0,16.23441 c -3.16328,1.85898 -6.85158,2.93747 -10.82032,2.93747 -11.8254,0 -21.26561,-9.4324 -21.26561,-21.2578 0,-11.82544 9.44021,-21.26564 21.26561,-21.26564 5.91272,0 11.22623,2.35708 15.06251,6.19532 l 9.96093,-9.95312 c -6.42177,-6.42372 -15.28086,-10.41408 -25.02344,-10.41408 -11.7498,0 -22.18328,5.82508 -28.64059,14.70312 -6.45502,-8.8788 -16.89024,-14.70312 -28.64066,-14.70312 -19.4852,0 -35.43748,15.95232 -35.43748,35.43752 0,5.27104 1.20016,10.26611 3.28904,14.77345 -3.85436,3.99266 -9.24896,6.48435 -15.29687,6.48435 -11.8254,0 -21.2578,-9.4324 -21.2578,-21.2578 0,-11.82544 9.4324,-21.26564 21.2578,-21.26564 3.53388,0 6.84703,0.8538 9.76564,2.35156 2.15848,-4.26672 4.99595,-8.12928 8.40625,-11.42188 -5.32785,-3.21308 -11.53266,-5.10176 -18.17205,-5.10176 z m 336.39062,14.16407 c 11.82539,0 21.2578,9.43236 21.2578,21.2578 0,11.82544 -9.43241,21.26565 -21.2578,21.26565 -11.82543,0 -21.25783,-9.44021 -21.25783,-21.26565 0,-11.82544 9.4324,-21.2578 21.25783,-21.2578 z m -288.94531,0.008 c 11.82544,0 21.2578,9.4402 21.2578,21.2656 0,11.82544 -9.43236,21.25784 -21.2578,21.25784 -11.82543,0 -21.2578,-9.4324 -21.2578,-21.25784 0,-11.8254 9.43237,-21.2656 21.2578,-21.2656 z"
     style="fill:#ffffff;"
     id="cogneco-h4w" />
</svg>
