<?xml version="1.0" encoding="UTF-8" standalone="no"?>
<svg
   xmlns:svg="http://www.w3.org/2000/svg"
   xmlns="http://www.w3.org/2000/svg"
   version="1.1"
   width="75mm"
   height="87.5mm"
   id="cogneco-v5w-document">
  <path
     d="m 132.87009,44.296555 c -48.817585,0 -88.583349,39.76573 -88.583349,88.583315 0,48.81759 39.765764,88.58334 88.583349,88.58334 48.81759,0 88.58329,-39.76575 88.58329,-88.58334 0,-48.817585 -39.7657,-88.583315 -88.58329,-88.583315 z m -14.26749,19.140483 13.89639,74.042402 -10.75187,2.02148 6.43551,34.20875 -22.35334,4.18942 4.13082,22.02133 c -27.92539,-9.49813 -47.948901,-35.83188 -47.948901,-67.04055 0,-34.354643 24.22603,-62.871531 56.591391,-69.442832 z m 40.5954,3.652323 c 26.1298,10.422523 44.54071,35.868829 44.54071,65.790509 0,33.25945 -22.74638,60.97075 -53.56405,68.67139 l -4.44336,-23.65217 22.35338,-4.21872 -6.4062,-34.17945 10.75187,-2.02148 L 159.198,67.089361 Z m -0.75195,41.532889 -0.4295,11.23037 -15.66393,-7.64639 16.09363,-3.58398 z m -40.195,0.72265 -12.871,2.86133 12.53895,6.1132 0.332,-8.97453 z m -0.2215,130.01403 0,36.38473 6.8602,0 0,-20.22885 23.42828,22.60763 0,-36.67973 -6.8602,0 0,20.52765 -23.42828,-22.61143 z m 96.26204,2.07623 c -9.43223,0 -17.15048,7.71825 -17.15048,17.15048 0,2.51578 0.5625,4.90226 1.54674,7.06064 -1.87083,1.98749 -4.51351,3.23723 -7.48799,3.23723 -5.72431,0 -10.29028,-4.56597 -10.29028,-10.29032 0,-5.72431 4.56597,-10.29403 10.29028,-10.29403 1.75009,0 3.38947,0.431 4.82561,1.18749 1.03764,-2.06448 2.40768,-3.93292 4.05032,-5.529 -2.59593,-1.58514 -5.62871,-2.51869 -8.87593,-2.51869 -9.43218,0 -17.15047,7.72205 -17.15047,17.15423 0,2.73348 0.66499,5.31336 1.81528,7.61279 -1.82418,1.66469 -4.25617,2.67753 -6.94715,2.67753 -4.51706,0 -8.30398,-2.84828 -9.70412,-6.8602 l 11.85596,0 c -0.1915,-1.11779 -0.314,-2.25998 -0.314,-3.43012 0,-1.17054 0.1225,-2.31179 0.314,-3.43008 l -11.85596,0 c 1.40014,-4.01292 5.18706,-6.86395 9.70412,-6.86395 1.48929,0 2.89883,0.3115 4.17132,0.8698 1.08579,-2.07089 2.52273,-3.92482 4.22047,-5.50631 -2.48598,-1.40769 -5.34636,-2.22369 -8.39179,-2.22369 -9.43223,0 -17.15047,7.72205 -17.15047,17.15423 0,9.43223 7.71824,17.15047 17.15047,17.15047 4.24937,0 8.13274,-1.57999 11.12982,-4.16752 3.00563,2.58788 6.89965,4.16752 11.15252,4.16752 4.44387,0 8.47964,-1.74014 11.53076,-4.54192 3.05638,2.80578 7.1114,4.53817 11.56097,4.53817 9.43223,0 17.15047,-7.72204 17.15047,-17.15427 0,-9.43223 -7.71824,-17.15048 -17.15047,-17.15048 z m -162.836903,0.004 c -9.432229,0 -17.150472,7.7221 -17.150472,17.15428 0,9.43223 7.718243,17.15047 17.150472,17.15047 4.410618,0 8.422188,-1.71304 11.466415,-4.47762 3.050027,2.77073 7.081507,4.47762 11.500475,4.47762 5.687657,0 10.73937,-2.81718 13.864096,-7.11355 3.125877,4.29602 8.17674,7.11355 13.864097,7.11355 4.71612,0 9.00453,-1.92874 12.11311,-5.03731 l -0.025,-0.025 0.01,0 0,-11.07692 -6.8602,0 0,7.85859 c -1.53124,0.89989 -3.31662,1.42194 -5.23781,1.42194 -5.724307,0 -10.294023,-4.56592 -10.294023,-10.29027 0,-5.72436 4.569716,-10.29408 10.294023,-10.29408 2.86218,0 5.43431,1.141 7.29135,2.99898 l 4.82181,-4.81801 c -3.10868,-3.10963 -7.39709,-5.04127 -12.11321,-5.04127 -5.687757,0 -10.73832,2.81978 -13.864097,7.1174 -3.124676,-4.29802 -8.176089,-7.1174 -13.864096,-7.1174 -9.43224,0 -17.154283,7.7221 -17.154283,17.15428 0,2.55158 0.580996,4.96956 1.592138,7.15139 -1.865786,1.93274 -4.477116,3.13888 -7.404745,3.13888 -5.724357,0 -10.290273,-4.56592 -10.290273,-10.29027 0,-5.72436 4.565916,-10.29408 10.290273,-10.29408 1.710638,0 3.314426,0.4135 4.727265,1.13835 1.044842,-2.06539 2.418382,-3.93518 4.06922,-5.52901 -2.578981,-1.55529 -5.582559,-2.46954 -8.796485,-2.46954 z m 162.836903,6.85645 c 5.72435,0 10.29027,4.56592 10.29027,10.29028 0,5.72435 -4.56592,10.29407 -10.29027,10.29407 -5.72436,0 -10.29028,-4.56972 -10.29028,-10.29407 0,-5.72436 4.56592,-10.29028 10.29028,-10.29028 z m -139.870013,0.004 c 5.724357,0 10.290273,4.56972 10.290273,10.29408 0,5.72435 -4.565916,10.29027 -10.290273,10.29027 -5.724358,0 -10.290284,-4.56592 -10.290284,-10.29027 0,-5.72436 4.565926,-10.29408 10.290284,-10.29408 z"
     style="fill:#ffffff;"
     id="cogneco-v5w" />
</svg>
