<?xml version="1.0" encoding="UTF-8" standalone="no"?>
<svg
   xmlns:svg="http://www.w3.org/2000/svg"
   xmlns="http://www.w3.org/2000/svg"
   id="cogneco-h6w-document"
   height="90mm"
   width="288mm"
   version="1.1">
  <path
     d="m 159.44531,53.156235 c -58.58154,0 -106.300803,47.719255 -106.300803,106.300805 0,58.58154 47.719263,106.3008 106.300803,106.3008 58.58148,0 106.30075,-47.71926 106.30075,-106.3008 0,-58.58155 -47.71927,-106.300805 -106.30075,-106.300805 z m -17.12112,22.968779 16.6758,88.851546 -12.90234,2.4258 7.72266,41.0508 -26.82426,5.02734 4.95708,26.42574 c -33.510719,-11.39778 -57.5391,-42.99852 -57.5391,-80.4492 0,-41.22588 29.07138,-75.446406 67.91016,-83.332026 z m 48.71484,4.38282 c 31.356,12.507121 53.4492,43.042926 53.4492,78.949206 0,39.91164 -27.2958,73.16544 -64.27734,82.40628 l -5.33202,-28.38282 26.82426,-5.0625 -7.6875,-41.01564 12.90234,-2.4258 -15.87894,-84.468726 z m -0.90234,49.839846 -0.5154,13.47654 -18.79686,-9.17574 19.3125,-4.3008 z m -48.23436,0.86718 -15.44532,3.43362 15.04686,7.3359 0.3984,-10.76952 z m 420.83203,-31.347665 0,112.746125 21.25782,0 0,-62.68362 72.59768,70.05468 0,-113.66016 -21.25782,0 0,63.60942 -72.59768,-70.066445 z m 298.28912,6.433625 c -29.22786,0 -53.14458,23.91672 -53.14458,53.14452 0,7.79568 1.74312,15.19068 4.79298,21.87888 -5.79726,6.1587 -13.98618,10.03128 -23.20314,10.03128 -17.73804,0 -31.8867,-14.1486 -31.8867,-31.88676 0,-17.7381 14.1486,-31.8984 31.8867,-31.8984 5.42292,0 10.50294,1.33512 14.95314,3.67968 3.2154,-6.3972 7.46076,-12.18684 12.5508,-17.13282 -8.04402,-4.91178 -17.4417,-7.80468 -27.50394,-7.80468 -29.2278,0 -53.14452,23.92842 -53.14452,53.15622 0,8.47026 2.06058,16.46454 5.625,23.5899 -5.65266,5.15838 -13.18872,8.29686 -21.52734,8.29686 -13.9971,0 -25.73166,-8.826 -30.07032,-21.25782 l 36.7383,0 c -0.5928,-3.46374 -0.97266,-7.00302 -0.97266,-10.62894 0,-3.62718 0.3792,-7.1637 0.97266,-10.62888 l -36.7383,0 c 4.33866,-12.43488 16.07322,-21.26952 30.07032,-21.26952 4.61496,0 8.98272,0.96468 12.9258,2.69532 3.36468,-6.41706 7.81722,-12.16194 13.07814,-17.0625 -7.7034,-4.362 -16.56696,-6.89064 -26.00394,-6.89064 -29.2278,0 -53.14452,23.92842 -53.14452,53.15622 0,29.22786 23.91672,53.14458 53.14452,53.14458 13.1676,0 25.20114,-4.89612 34.4883,-12.9141 9.3135,8.01912 21.38004,12.9141 34.55856,12.9141 13.7703,0 26.27598,-5.39232 35.73048,-14.07426 9.47088,8.6943 22.03632,14.0625 35.82426,14.0625 29.22781,0 53.14453,-23.92842 53.14453,-53.15622 0,-29.2278 -23.91672,-53.14452 -53.14453,-53.14452 z m -504.58598,0.012 c -29.2278,0 -53.14452,23.92842 -53.14452,53.15622 0,29.2278 23.91672,53.14452 53.14452,53.14452 13.66734,0 26.09796,-5.30826 35.53122,-13.875 9.4512,8.58582 21.94356,13.875 35.63676,13.875 17.6244,0 33.27828,-8.72958 42.9609,-22.04292 9.68616,13.3122 25.3374,22.04292 42.96096,22.04292 14.6139,0 27.90246,-5.97672 37.53516,-15.60936 l -0.0822,-0.0822 0.036,0 0,-34.3242 -21.25782,0 0,24.35154 c -4.74492,2.7885 -10.2774,4.40628 -16.23048,4.40628 -17.73816,0 -31.89846,-14.1486 -31.89846,-31.88676 0,-17.7381 14.1603,-31.8984 31.89846,-31.8984 8.86908,0 16.83936,3.53562 22.59378,9.29298 l 14.94138,-14.92974 c -9.63264,-9.63558 -22.92126,-15.62106 -37.53516,-15.62106 -17.6247,0 -33.27498,8.73756 -42.96096,22.05468 -9.68244,-13.3182 -25.3353,-22.05468 -42.9609,-22.05468 -29.2278,0 -53.15628,23.92842 -53.15628,53.15622 0,7.90662 1.8003,15.39924 4.93362,22.16016 -5.7816,5.98902 -13.87344,9.7266 -22.94532,9.7266 -17.73816,0 -31.8867,-14.1486 -31.8867,-31.88676 0,-17.7381 14.14854,-31.8984 31.8867,-31.8984 5.30076,0 10.27056,1.28064 14.64846,3.52734 3.23772,-6.40014 7.49388,-12.19398 12.60936,-17.13282 -7.99182,-4.81968 -17.29902,-7.65264 -27.25806,-7.65264 z m 504.58598,21.24606 c 17.7381,0 31.88671,14.1486 31.88671,31.88676 0,17.7381 -14.14861,31.8984 -31.88671,31.8984 -17.73816,0 -31.88676,-14.1603 -31.88676,-31.8984 0,-17.73816 14.1486,-31.88676 31.88676,-31.88676 z m -433.418,0.012 c 17.7381,0 31.8867,14.1603 31.8867,31.89846 0,17.7381 -14.1486,31.8867 -31.8867,31.8867 -17.73816,0 -31.88676,-14.1486 -31.88676,-31.8867 0,-17.73816 14.1486,-31.89846 31.88676,-31.89846 z"
     style="fill:#ffffff;"
     id="cogneco-h6w" />
</svg>
