<?xml version="1.0" encoding="UTF-8" standalone="no"?>
<svg
   xmlns:svg="http://www.w3.org/2000/svg"
   xmlns="http://www.w3.org/2000/svg"
   version="1.1"
   width="48mm"
   height="15mm"
   id="cogneco-h1w-document">
  <path
     d="m 26.574221,8.859377 c -9.763588,0 -17.716797,7.953209 -17.716797,17.716797 0,9.763588 7.953209,17.716797 17.716797,17.716797 9.763588,0 17.716797,-7.953209 17.716797,-17.716797 0,-9.763588 -7.953209,-17.716797 -17.716797,-17.716797 z m -2.853516,3.828125 2.779297,14.808594 -2.150391,0.404297 1.28711,6.841797 -4.470703,0.83789 0.826172,4.404297 c -5.58512,-1.899633 -9.589844,-7.166428 -9.589844,-13.408203 0,-6.870984 4.845232,-12.5744 11.318359,-13.888672 z m 8.119141,0.730469 c 5.225996,2.084521 8.908203,7.173825 8.908203,13.158203 0,6.651938 -4.549301,12.194242 -10.712891,13.734375 L 29.146486,35.58008 33.61719,34.73633 32.33594,27.900393 34.48633,27.496096 31.839846,13.417971 Z m -0.150391,8.30664 -0.08594,2.246094 -3.132813,-1.529297 3.21875,-0.716797 z m -8.039062,0.144532 -2.574219,0.572265 2.507812,1.222656 0.06641,-1.794921 z m 70.138671,-5.22461 0,18.791016 3.542969,0 0,-10.447266 12.099607,11.675781 0,-18.943359 -3.54297,0 0,10.601563 -12.099606,-11.677735 z m 49.714846,1.072266 c -4.87131,0 -8.85743,3.98612 -8.85743,8.857422 0,1.299283 0.29052,2.531781 0.79883,3.646484 -0.96621,1.026452 -2.33103,1.671875 -3.86719,1.671875 -2.95634,0 -5.31445,-2.358097 -5.31445,-5.314453 0,-2.956356 2.3581,-5.316406 5.31445,-5.316406 0.90382,0 1.75049,0.222519 2.49219,0.613281 0.5359,-1.066198 1.24346,-2.031144 2.0918,-2.855469 -1.34067,-0.818633 -2.90695,-1.300781 -4.58399,-1.300781 -4.8713,0 -8.85742,3.988073 -8.85742,8.859375 0,1.411707 0.34343,2.74409 0.9375,3.931641 -0.94211,0.859734 -2.19812,1.382812 -3.58789,1.382812 -2.33285,0 -4.28861,-1.471001 -5.01172,-3.542969 l 6.12305,0 c -0.0988,-0.577285 -0.16211,-1.167171 -0.16211,-1.771484 0,-0.604534 0.0632,-1.193953 0.16211,-1.771484 l -6.12305,0 c 0.72311,-2.072481 2.67887,-3.544922 5.01172,-3.544922 0.76916,0 1.49712,0.160779 2.1543,0.449219 0.56078,-1.06951 1.30287,-2.026985 2.17969,-2.84375 -1.2839,-0.726998 -2.76116,-1.148438 -4.33399,-1.148438 -4.8713,0 -8.85742,3.988073 -8.85742,8.859375 0,4.871302 3.98612,8.857422 8.85742,8.857422 2.1946,0 4.20019,-0.816012 5.74805,-2.152344 1.55225,1.336522 3.56334,2.152344 5.75976,2.152344 2.29505,0 4.37933,-0.898714 5.95508,-2.345703 1.57848,1.449046 3.67272,2.34375 5.97071,2.34375 4.8713,0 8.85742,-3.988074 8.85742,-8.859375 0,-4.871302 -3.98612,-8.857422 -8.85742,-8.857422 z m -84.097658,0.002 c -4.871302,0 -8.857422,3.988073 -8.857422,8.859375 0,4.871302 3.98612,8.857422 8.857422,8.857422 2.277892,0 4.349667,-0.884709 5.921875,-2.3125 1.575202,1.430963 3.657254,2.3125 5.939453,2.3125 2.937404,0 5.546383,-1.454938 7.160156,-3.673828 1.614357,2.218701 4.2229,3.673828 7.160157,3.673828 2.43565,0 4.650416,-0.99612 6.255859,-2.601563 l -0.01367,-0.01367 0.0059,0 0,-5.720703 -3.542969,0 0,4.058594 c -0.79082,0.46475 -1.712896,0.734375 -2.705078,0.734375 -2.956357,0 -5.316407,-2.358097 -5.316407,-5.314453 0,-2.956356 2.36005,-5.316406 5.316407,-5.316406 1.478178,0 2.806556,0.589271 3.765625,1.548828 l 2.490234,-2.488281 c -1.605443,-1.605931 -3.820209,-2.603516 -6.255859,-2.603516 -2.937454,0 -5.545826,1.456264 -7.160157,3.675781 -1.613747,-2.219704 -4.222556,-3.675781 -7.160156,-3.675781 -4.871301,0 -8.859375,3.988073 -8.859375,8.859375 0,1.317764 0.300044,2.566535 0.822266,3.693359 -0.963595,0.998171 -2.312238,1.621094 -3.824219,1.621094 -2.956356,0 -5.314453,-2.358097 -5.314453,-5.314453 0,-2.956356 2.358097,-5.316406 5.314453,-5.316406 0.883463,0 1.71176,0.213443 2.441406,0.58789 0.539623,-1.066685 1.248988,-2.032324 2.101563,-2.855468 -1.331966,-0.803278 -2.883164,-1.27544 -4.543011,-1.27544 z m 84.097658,3.541016 c 2.95635,0 5.31445,2.358096 5.31445,5.314453 0,2.956356 -2.3581,5.316406 -5.31445,5.316406 -2.95636,0 -5.31446,-2.36005 -5.31446,-5.316406 0,-2.956357 2.3581,-5.314453 5.31446,-5.314453 z m -72.23633,0.002 c 2.956356,0 5.314453,2.36005 5.314453,5.316406 0,2.956356 -2.358097,5.314453 -5.314453,5.314453 -2.956356,0 -5.314453,-2.358097 -5.314453,-5.314453 0,-2.956356 2.358097,-5.316406 5.314453,-5.316406 z"
     style="fill:#ffffff;"
     id="cogneco-h1w" />
</svg>
