<?xml version="1.0" encoding="UTF-8" standalone="no"?>
<svg
   xmlns:svg="http://www.w3.org/2000/svg"
   xmlns="http://www.w3.org/2000/svg"
   version="1.1"
   width="96mm"
   height="30mm"
   id="cogneco-h2w-document">
  <path
     d="m 53.148437,17.718751 c -19.527177,0 -35.433596,15.906419 -35.433596,35.433596 0,19.527177 15.906419,35.433596 35.433596,35.433596 19.527177,0 35.433594,-15.906419 35.433594,-35.433596 0,-19.527177 -15.906417,-35.433596 -35.433594,-35.433596 z m -5.707033,7.656251 5.558595,29.617189 -4.300782,0.808594 2.57422,13.683595 -8.941407,1.67578 1.652344,8.808594 C 32.814134,76.169488 24.804685,65.635898 24.804685,53.152347 c 0,-13.741969 9.690465,-25.148801 22.636719,-27.777345 z m 16.238283,1.460938 c 10.451993,4.169042 17.816407,14.34765 17.816407,26.316407 0,13.303877 -9.098602,24.388485 -21.425783,27.468751 l -1.777344,-9.460938 8.941408,-1.6875 -2.5625,-13.671875 4.300781,-0.808594 -5.292969,-28.156251 z m -0.300782,16.613281 -0.17188,4.492188 -6.265626,-3.058594 6.4375,-1.433594 z m -16.078125,0.289064 -5.148438,1.14453 5.015624,2.445312 0.13282,-3.589842 z m 140.27736,-10.449221 0,37.582034 7.08594,0 0,-20.894533 24.19923,23.351563 0,-37.88672 -7.08594,0 0,21.203127 -24.19923,-23.355471 z m 99.42971,2.144532 c -9.74262,0 -17.71486,7.972241 -17.71486,17.714845 0,2.598566 0.58104,5.063562 1.59766,7.292968 -1.93242,2.052905 -4.66206,3.343751 -7.73438,3.343751 -5.91268,0 -10.6289,-4.716195 -10.6289,-10.628907 0,-5.912712 4.7162,-10.632812 10.6289,-10.632812 1.80764,0 3.50098,0.445038 4.98438,1.226562 1.0718,-2.132397 2.48692,-4.062289 4.1836,-5.710939 -2.68134,-1.637266 -5.8139,-2.601562 -9.16798,-2.601562 -9.7426,0 -17.71484,7.976147 -17.71484,17.718751 0,2.823414 0.68686,5.48818 1.875,7.863282 -1.88422,1.719469 -4.39624,2.765625 -7.17578,2.765625 -4.6657,0 -8.57722,-2.942003 -10.02344,-7.085939 l 12.2461,0 c -0.1976,-1.15457 -0.32422,-2.334342 -0.32422,-3.542968 0,-1.209068 0.1264,-2.387906 0.32422,-3.542968 l -12.2461,0 c 1.44622,-4.144962 5.35774,-7.089844 10.02344,-7.089844 1.53832,0 2.99424,0.321558 4.3086,0.898438 1.12156,-2.139021 2.60574,-4.053971 4.35938,-5.687501 -2.5678,-1.453996 -5.52232,-2.296876 -8.66798,-2.296876 -9.7426,0 -17.71484,7.976147 -17.71484,17.718751 0,9.742605 7.97224,17.714845 17.71484,17.714845 4.3892,0 8.40038,-1.632024 11.4961,-4.304688 3.1045,2.673044 7.12668,4.304688 11.51952,4.304688 4.5901,0 8.75866,-1.797428 11.91016,-4.691406 3.15696,2.898092 7.34544,4.6875 11.94142,4.6875 9.7426,0 17.71484,-7.976148 17.71484,-17.718751 0,-9.742604 -7.97224,-17.714845 -17.71484,-17.714845 z m -168.19534,0.004 c -9.74262,0 -17.71486,7.976147 -17.71486,17.718751 0,9.742605 7.97224,17.714845 17.71486,17.714845 4.55578,0 8.69932,-1.769418 11.84374,-4.625 3.1504,2.861926 7.3145,4.625 11.8789,4.625 5.87482,0 11.09278,-2.909876 14.32032,-7.347656 3.22872,4.437402 8.4458,7.347656 14.32032,7.347656 4.8713,0 9.30083,-1.99224 12.51173,-5.203126 l -0.0274,-0.02734 0.012,0 0,-11.441407 -7.08595,0 0,8.117189 c -1.58164,0.9295 -3.4258,1.46875 -5.41016,1.46875 -5.91272,0 -10.63282,-4.716195 -10.63282,-10.628907 0,-5.912712 4.7201,-10.632812 10.63282,-10.632812 2.95636,0 5.6131,1.178542 7.53125,3.097656 l 4.98048,-4.976563 c -3.2109,-3.211862 -7.64043,-5.207032 -12.51173,-5.207032 -5.87492,0 -11.09166,2.912528 -14.32032,7.351563 -3.2275,-4.439409 -8.4451,-7.351563 -14.3203,-7.351563 -9.74262,0 -17.71876,7.976147 -17.71876,17.718751 0,2.635528 0.60008,5.13307 1.64454,7.386718 -1.9272,1.996343 -4.62448,3.242189 -7.64844,3.242189 -5.91272,0 -10.62892,-4.716195 -10.62892,-10.628907 0,-5.912712 4.7162,-10.632812 10.62892,-10.632812 1.76692,0 3.42352,0.426886 4.8828,1.17578 1.07926,-2.133371 2.49798,-4.064649 4.20314,-5.710937 -2.66394,-1.606556 -5.76634,-2.55088 -9.08602,-2.55088 z m 168.19534,7.082033 c 5.9127,0 10.6289,4.716192 10.6289,10.628906 0,5.912712 -4.7162,10.632813 -10.6289,10.632813 -5.91272,0 -10.62892,-4.720101 -10.62892,-10.632813 0,-5.912714 4.7162,-10.628906 10.62892,-10.628906 z m -144.4727,0.004 c 5.91272,0 10.62892,4.7201 10.62892,10.632812 0,5.912712 -4.7162,10.628907 -10.62892,10.628907 -5.9127,0 -10.6289,-4.716195 -10.6289,-10.628907 0,-5.912712 4.7162,-10.632812 10.6289,-10.632812 z"
     style="fill:#ffffff;"
     id="cogneco-h2w" />
</svg>
